<svg id="svg" version="1.1" width="393" height="48" xmlns="http://www.w3.org/2000/svg" xmlns:xlink="http://www.w3.org/1999/xlink" ><g id="svgg"><path id="path0" d="M16.356 0.667 C 4.307 2.545,-2.600 15.395,0.961 29.308 C 5.410 46.692,29.333 49.162,35.757 32.901 C 36.975 29.817,37.494 30.316,30.909 28.233 L 28.558 27.489 28.201 28.715 C 25.978 36.362,18.182 38.973,12.588 33.944 C 7.574 29.436,7.536 14.725,12.527 10.238 C 17.571 5.703,25.305 7.265,27.781 13.318 C 28.173 14.279,28.403 14.584,28.697 14.536 C 28.912 14.502,30.785 14.075,32.859 13.588 L 36.629 12.703 36.233 11.552 C 33.453 3.473,25.676 -0.786,16.356 0.667 M273.944 0.661 C 263.080 2.385,257.408 9.728,257.410 22.064 C 257.411 28.858,258.493 32.640,261.590 36.672 C 266.426 42.970,276.482 45.416,285.419 42.469 L 287.083 41.920 289.816 43.745 C 292.486 45.529,293.901 46.305,295.544 46.886 L 296.356 47.174 297.925 44.201 C 298.788 42.566,299.410 41.157,299.308 41.068 C 299.206 40.980,298.480 40.640,297.695 40.312 C 296.168 39.673,292.865 37.769,292.865 37.528 C 292.865 37.448,293.171 36.998,293.545 36.529 C 299.359 29.232,299.436 15.242,293.704 7.605 C 289.740 2.322,281.568 -0.550,273.944 0.661 M44.127 22.064 L 44.127 43.030 48.299 43.030 L 52.470 43.030 52.470 34.218 L 52.470 25.406 55.049 25.525 C 60.038 25.754,60.159 25.862,67.307 36.539 L 71.652 43.030 76.660 43.030 C 79.415 43.030,81.668 42.986,81.668 42.932 C 81.668 42.751,74.902 32.053,73.846 30.566 C 72.359 28.470,70.648 26.731,68.892 25.531 L 67.376 24.496 69.260 24.023 C 77.091 22.056,80.656 14.373,77.051 7.231 C 74.323 1.826,71.680 1.108,54.501 1.101 L 44.127 1.098 44.127 22.064 M86.498 22.064 L 86.498 43.030 102.415 43.030 L 118.332 43.030 118.332 39.517 L 118.332 36.004 106.586 36.004 L 94.841 36.004 94.841 30.187 L 94.841 24.369 105.379 24.369 L 115.917 24.369 115.917 20.856 L 115.917 17.344 105.379 17.344 L 94.841 17.344 94.841 12.733 L 94.841 8.123 106.147 8.123 L 117.453 8.123 117.453 4.610 L 117.453 1.098 101.976 1.098 L 86.498 1.098 86.498 22.064 M129.396 22.012 L 121.250 42.920 125.648 42.979 C 128.835 43.023,130.089 42.968,130.205 42.781 C 130.292 42.639,131.090 40.513,131.976 38.056 L 133.589 33.589 141.964 33.589 L 150.339 33.589 151.208 35.840 C 151.686 37.077,152.501 39.201,153.020 40.560 L 153.964 43.030 158.564 43.030 C 162.155 43.030,163.141 42.969,163.057 42.755 C 162.998 42.604,159.222 33.170,154.665 21.789 L 146.380 1.098 141.960 1.101 L 137.541 1.104 129.396 22.012 M165.093 4.610 L 165.093 8.123 171.240 8.123 L 177.387 8.123 177.387 25.576 L 177.387 43.030 181.559 43.030 L 185.730 43.030 185.730 25.576 L 185.730 8.123 191.987 8.123 L 198.244 8.123 198.244 4.610 L 198.244 1.098 181.668 1.098 L 165.093 1.098 165.093 4.610 M203.732 22.064 L 203.732 43.030 219.649 43.030 L 235.565 43.030 235.565 39.517 L 235.565 36.004 223.820 36.004 L 212.075 36.004 212.075 30.187 L 212.075 24.369 222.613 24.369 L 233.150 24.369 233.150 20.856 L 233.150 17.344 222.613 17.344 L 212.075 17.344 212.075 12.733 L 212.075 8.123 223.381 8.123 L 234.687 8.123 234.687 4.610 L 234.687 1.098 219.210 1.098 L 203.732 1.098 203.732 22.064 M304.504 13.227 C 304.509 33.408,304.873 35.767,308.544 39.416 C 311.717 42.570,314.752 43.548,321.405 43.557 C 327.984 43.566,331.125 42.581,334.125 39.570 C 337.725 35.958,338.081 33.555,338.087 12.898 L 338.090 1.098 333.809 1.098 L 329.528 1.098 329.521 15.093 C 329.514 29.473,329.411 31.665,328.675 33.091 C 326.179 37.928,316.762 37.880,314.118 33.017 C 313.135 31.209,313.066 30.039,313.064 15.093 L 313.063 1.098 308.782 1.098 L 304.501 1.098 304.504 13.227 M346.652 22.064 L 346.652 43.030 350.933 43.030 L 355.214 43.030 355.214 22.064 L 355.214 1.098 350.933 1.098 L 346.652 1.098 346.652 22.064 M362.020 4.608 L 362.020 8.118 371.804 8.176 L 381.588 8.233 370.596 21.675 L 359.605 35.117 359.605 39.073 L 359.605 43.030 376.619 43.030 L 393.633 43.030 393.633 39.519 L 393.633 36.008 381.637 35.951 L 369.641 35.895 381.198 21.789 L 392.755 7.683 392.755 4.390 L 392.755 1.098 377.387 1.098 L 362.020 1.098 362.020 4.608 M280.550 8.022 C 286.196 9.353,289.133 14.083,289.133 21.844 C 289.133 26.288,288.498 28.838,286.690 31.657 L 286.029 32.688 284.578 31.694 C 283.045 30.645,280.156 29.123,278.764 28.632 L 277.932 28.338 276.975 30.250 C 275.504 33.191,275.505 33.051,276.958 33.694 C 277.642 33.997,278.809 34.614,279.551 35.066 L 280.900 35.888 279.802 36.145 C 273.502 37.618,267.882 33.739,266.398 26.894 C 263.781 14.825,270.636 5.685,280.550 8.022 M67.155 8.888 C 70.918 10.972,70.318 17.047,66.234 18.219 C 65.660 18.384,62.893 18.527,58.891 18.598 L 52.470 18.713 52.470 13.401 L 52.470 8.089 59.221 8.161 L 65.971 8.233 67.155 8.888 M144.797 18.831 C 146.334 22.970,147.543 26.405,147.484 26.464 C 147.425 26.523,144.858 26.545,141.781 26.513 L 136.185 26.454 138.783 19.319 C 141.556 11.705,141.793 11.094,141.921 11.223 C 141.966 11.269,143.260 14.692,144.797 18.831 " stroke="none" fill="#ffffff" fill-rule="evenodd"></path></g></svg>