<svg id="svg" version="1.1" width="399" height="33" xmlns="http://www.w3.org/2000/svg" xmlns:xlink="http://www.w3.org/1999/xlink" ><g id="svgg"><path id="path0" d="M31.156 0.362 C 24.112 2.140,20.430 7.817,20.430 16.897 C 20.430 28.004,25.008 33.034,35.114 33.030 C 45.611 33.026,50.790 27.418,50.787 16.061 C 50.784 7.577,47.929 2.613,41.909 0.629 C 39.825 -0.059,33.448 -0.217,31.156 0.362 M67.017 0.204 C 60.773 1.297,56.495 5.761,55.294 12.435 C 53.545 22.160,56.937 30.107,63.811 32.390 C 67.436 33.593,73.313 33.198,76.449 31.539 C 78.403 30.506,78.568 30.204,78.568 27.678 C 78.568 24.954,78.346 24.642,76.984 25.447 C 69.939 29.607,64.213 27.949,62.396 21.223 C 61.499 17.900,61.939 12.565,63.344 9.737 C 65.518 5.364,70.754 4.267,75.525 7.186 C 77.865 8.618,77.679 8.557,78.116 8.027 C 78.834 7.156,78.577 3.472,77.738 2.608 C 75.930 0.743,70.671 -0.436,67.017 0.204 M286.110 0.361 C 281.378 1.741,278.744 5.822,279.489 10.618 C 280.061 14.294,281.694 15.998,287.253 18.719 C 292.509 21.292,293.460 22.297,292.908 24.698 C 292.091 28.250,287.083 28.943,281.839 26.230 C 279.145 24.836,279.074 24.857,278.840 27.138 C 278.426 31.179,280.836 32.833,287.369 32.991 C 295.196 33.181,299.761 29.495,299.761 22.984 C 299.761 18.337,297.501 15.841,290.632 12.903 C 287.431 11.533,286.014 10.160,286.014 8.426 C 286.014 4.849,290.257 3.885,295.341 6.306 C 297.752 7.454,297.852 7.375,297.852 4.334 C 297.852 1.599,297.451 1.185,293.946 0.290 C 292.305 -0.128,287.644 -0.086,286.110 0.361 M1.346 0.566 C 0.111 0.876,0.175 -0.031,0.233 16.416 C 0.262 24.662,0.361 31.562,0.453 31.749 C 0.874 32.613,1.243 32.649,9.547 32.649 L 17.394 32.649 17.671 31.987 C 18.028 31.133,18.028 28.819,17.671 27.965 L 17.394 27.303 12.134 27.303 L 6.874 27.303 6.874 14.229 L 6.874 1.154 6.362 0.819 C 5.782 0.439,2.511 0.274,1.346 0.566 M84.401 0.576 C 84.038 0.661,83.630 0.884,83.494 1.070 C 83.133 1.564,83.129 31.652,83.490 32.146 C 84.205 33.124,89.205 33.072,89.735 32.081 C 89.856 31.855,89.928 28.884,89.928 24.130 L 89.928 16.541 94.895 24.357 C 100.702 33.496,99.951 32.745,103.283 32.745 C 108.182 32.745,108.272 33.203,101.302 22.658 L 96.426 15.282 100.798 9.573 C 107.770 0.469,107.768 0.477,102.912 0.477 C 99.780 0.477,100.381 -0.081,94.797 8.020 L 90.024 14.945 89.928 8.093 C 89.876 4.325,89.765 1.137,89.683 1.009 C 89.318 0.446,86.080 0.181,84.401 0.576 M119.820 0.806 C 119.601 1.118,119.523 1.713,119.523 3.055 C 119.523 5.880,119.250 5.728,124.307 5.728 L 128.496 5.728 128.496 18.991 L 128.496 32.254 128.926 32.499 C 129.518 32.837,133.967 32.837,134.558 32.499 L 134.988 32.254 134.988 18.991 L 134.988 5.728 139.178 5.728 C 144.235 5.728,143.962 5.880,143.962 3.055 C 143.962 1.713,143.883 1.118,143.665 0.806 L 143.367 0.382 131.742 0.382 L 120.117 0.382 119.820 0.806 M148.975 0.568 C 147.687 0.874,147.780 -0.379,147.780 16.630 L 147.780 32.068 148.245 32.372 C 148.809 32.742,151.125 32.943,152.637 32.754 C 154.558 32.514,154.463 32.902,154.463 25.298 L 154.463 18.711 160.382 18.711 L 166.301 18.711 166.301 25.298 C 166.301 32.902,166.206 32.514,168.127 32.754 C 169.638 32.943,171.954 32.742,172.518 32.372 L 172.983 32.068 172.983 16.611 L 172.983 1.154 172.518 0.850 C 171.954 0.480,169.638 0.279,168.127 0.468 C 166.221 0.706,166.301 0.411,166.301 7.255 L 166.301 13.174 160.382 13.174 L 154.463 13.174 154.463 7.292 C 154.463 0.766,154.480 0.860,153.217 0.567 C 152.319 0.359,149.853 0.359,148.975 0.568 M180.772 0.678 C 180.442 0.857,180.184 1.216,180.057 1.672 C 179.784 2.655,179.785 30.377,180.058 31.360 C 180.419 32.662,180.319 32.649,189.848 32.649 C 199.813 32.649,198.854 32.924,198.854 30.072 C 198.854 27.260,199.446 27.494,192.339 27.494 L 186.348 27.494 186.348 22.912 L 186.348 18.329 191.379 18.329 C 197.426 18.329,197.098 18.466,197.098 15.954 C 197.098 14.767,197.013 14.211,196.778 13.853 L 196.459 13.365 191.404 13.365 L 186.348 13.365 186.348 9.451 L 186.348 5.537 192.254 5.537 C 197.158 5.537,198.206 5.490,198.436 5.260 C 198.985 4.711,199.052 1.709,198.537 0.716 C 198.294 0.248,181.630 0.212,180.772 0.678 M224.797 0.589 C 224.469 0.684,224.113 0.870,224.006 1.002 C 223.795 1.261,213.587 30.496,213.383 31.424 C 213.130 32.575,213.500 32.745,216.262 32.745 C 219.560 32.745,219.311 32.967,220.636 28.831 L 221.739 25.389 227.846 25.439 L 233.953 25.489 235.066 28.822 C 236.449 32.966,236.211 32.728,239.057 32.813 C 242.801 32.924,243.243 32.709,242.782 31.009 C 242.351 29.421,232.408 1.114,232.212 0.918 C 231.706 0.412,226.244 0.170,224.797 0.589 M248.419 0.623 C 247.081 1.311,247.166 0.262,247.107 16.818 C 247.070 26.912,247.117 31.819,247.253 32.072 C 247.660 32.833,251.382 33.120,252.562 32.482 L 252.999 32.245 252.943 19.937 C 252.909 12.416,252.955 7.797,253.061 8.062 C 254.403 11.418,264.542 30.519,265.516 31.525 C 267.315 33.384,272.861 33.101,273.545 31.115 C 273.989 29.826,273.881 1.485,273.430 0.928 C 272.996 0.392,269.152 0.239,268.303 0.724 L 267.870 0.971 267.921 12.228 C 267.949 18.419,267.950 23.485,267.924 23.485 C 267.899 23.485,267.115 21.916,266.182 20.000 C 263.376 14.235,256.895 2.258,256.166 1.493 C 255.794 1.102,255.173 0.700,254.765 0.587 C 253.730 0.300,248.997 0.327,248.419 0.623 M303.294 0.511 C 302.674 0.678,302.434 0.967,302.434 1.547 C 302.434 2.291,310.040 31.494,310.369 32.011 C 311.098 33.159,317.775 33.176,318.762 32.033 C 319.042 31.707,319.815 28.787,321.620 21.235 C 322.981 15.541,324.139 10.883,324.195 10.883 C 324.250 10.883,325.499 15.622,326.969 21.414 C 330.147 33.933,329.467 32.698,333.240 32.808 C 336.302 32.898,337.817 32.644,338.261 31.966 C 338.697 31.302,346.181 2.957,346.220 1.824 C 346.263 0.584,345.904 0.388,343.580 0.386 C 341.483 0.384,340.467 0.634,340.259 1.205 C 340.175 1.435,338.826 7.189,337.262 13.992 C 335.491 21.688,334.364 26.232,334.278 26.020 C 334.201 25.833,332.805 20.267,331.176 13.652 C 327.771 -0.173,328.095 0.851,327.025 0.561 C 325.668 0.195,321.799 0.407,321.332 0.874 C 321.050 1.156,320.226 4.291,318.005 13.536 C 316.381 20.293,315.017 25.919,314.974 26.038 C 314.862 26.348,314.758 25.920,311.784 12.888 C 310.269 6.253,308.961 0.924,308.806 0.764 C 308.525 0.472,304.178 0.272,303.294 0.511 M351.846 0.678 C 351.516 0.857,351.258 1.216,351.131 1.672 C 350.858 2.655,350.859 30.377,351.132 31.360 C 351.493 32.662,351.393 32.649,360.922 32.649 C 370.887 32.649,369.928 32.924,369.928 30.072 C 369.928 27.260,370.520 27.494,363.413 27.494 L 357.422 27.494 357.422 22.912 L 357.422 18.329 362.453 18.329 C 368.500 18.329,368.172 18.466,368.172 15.954 C 368.172 14.767,368.087 14.211,367.852 13.853 L 367.533 13.365 362.478 13.365 L 357.422 13.365 357.422 9.451 L 357.422 5.537 363.328 5.537 C 368.232 5.537,369.280 5.490,369.510 5.260 C 370.059 4.711,370.126 1.709,369.611 0.716 C 369.368 0.248,352.704 0.212,351.846 0.678 M376.667 0.668 C 376.341 0.851,376.077 1.222,375.952 1.672 C 375.683 2.643,375.676 31.578,375.945 32.081 C 376.475 33.072,381.475 33.124,382.191 32.146 C 382.376 31.892,382.434 30.346,382.434 25.644 L 382.434 19.475 383.796 19.475 C 387.334 19.475,388.091 20.328,390.991 27.589 C 393.061 32.773,392.871 32.426,393.773 32.669 C 394.888 32.969,398.893 32.823,399.322 32.466 C 399.860 32.020,399.619 31.144,397.709 26.613 C 395.201 20.660,394.155 18.944,392.493 18.049 L 391.822 17.687 393.307 16.964 C 396.550 15.386,397.798 13.245,397.798 9.260 C 397.798 4.588,395.873 2.158,391.122 0.831 C 389.455 0.366,377.447 0.230,376.667 0.668 M39.402 5.879 C 42.620 7.385,43.951 10.438,43.957 16.325 C 43.964 24.213,41.314 27.765,35.418 27.765 C 30.089 27.765,27.888 25.284,27.304 18.621 C 26.673 11.424,28.800 6.692,33.227 5.448 C 34.970 4.958,37.866 5.160,39.402 5.879 M388.067 5.641 C 390.302 6.223,391.122 7.348,391.122 9.833 C 391.122 13.211,389.334 14.511,384.691 14.511 L 382.434 14.511 382.434 9.928 L 382.434 5.346 384.685 5.346 C 386.098 5.346,387.358 5.456,388.067 5.641 M232.351 20.286 C 232.357 20.365,230.301 20.430,227.780 20.430 C 225.260 20.430,223.198 20.407,223.198 20.379 C 223.198 20.292,227.581 7.176,227.712 6.874 C 227.807 6.652,232.295 19.627,232.351 20.286 " stroke="none" fill="#ffffff" fill-rule="evenodd"></path></g></svg>