<svg id="svg" version="1.1" width="392" height="65" xmlns="http://www.w3.org/2000/svg" xmlns:xlink="http://www.w3.org/1999/xlink" ><g id="svgg"><path id="path0" d="M23.552 0.541 C 8.782 2.551,0.445 13.223,0.445 30.121 C 0.445 41.548,4.086 49.794,11.424 54.986 C 18.582 60.052,30.568 61.279,39.700 57.882 L 41.101 57.361 44.851 59.835 C 46.914 61.196,49.229 62.600,49.997 62.955 C 51.546 63.672,53.825 64.513,53.925 64.404 C 54.086 64.228,58.116 56.260,58.068 56.213 C 58.038 56.183,57.499 55.954,56.869 55.704 C 54.643 54.820,51.797 53.315,49.771 51.950 L 48.902 51.364 49.679 50.400 C 58.350 39.647,58.246 19.410,49.466 9.105 C 43.700 2.336,33.976 -0.877,23.552 0.541 M65.165 15.764 C 65.172 44.194,65.520 47.439,69.078 52.220 C 72.245 56.476,76.799 58.815,83.296 59.525 C 97.309 61.054,106.603 56.941,109.541 47.908 C 110.776 44.110,110.799 43.655,110.866 21.031 L 110.926 1.204 105.124 1.204 L 99.323 1.204 99.320 19.977 C 99.317 44.232,99.316 44.245,96.951 46.949 C 93.029 51.432,82.770 50.986,79.095 46.172 C 76.891 43.286,76.910 43.506,76.800 20.128 L 76.711 1.204 70.936 1.204 L 65.162 1.204 65.165 15.764 M122.649 29.947 L 122.649 58.691 128.442 58.691 L 134.236 58.691 134.236 29.947 L 134.236 1.204 128.442 1.204 L 122.649 1.204 122.649 29.947 M143.868 6.094 L 143.868 10.984 157.249 11.023 L 170.630 11.061 155.518 29.769 L 140.406 48.476 140.406 53.584 L 140.406 58.691 163.732 58.691 L 187.058 58.691 187.058 53.800 L 187.058 48.909 171.018 48.909 C 162.197 48.909,155.001 48.855,155.029 48.789 C 155.056 48.722,162.037 40.058,170.542 29.534 L 186.005 10.400 186.005 5.802 L 186.005 1.204 164.936 1.204 L 143.868 1.204 143.868 6.094 M195.628 29.910 L 202.335 58.616 208.730 58.653 L 215.124 58.690 220.764 37.396 C 223.865 25.685,226.441 16.102,226.487 16.102 C 226.547 16.102,236.926 54.124,238.021 58.352 L 238.109 58.691 244.374 58.690 L 250.640 58.689 257.459 30.059 C 261.209 14.313,264.273 1.379,264.268 1.317 C 264.263 1.255,261.657 1.204,258.477 1.204 L 252.696 1.204 252.482 2.144 C 252.364 2.662,250.412 11.635,248.144 22.084 C 245.876 32.534,243.982 41.084,243.934 41.084 C 243.887 41.084,241.548 32.128,238.737 21.181 L 233.626 1.279 226.713 1.279 L 219.799 1.279 214.604 20.880 C 211.747 31.661,209.375 40.481,209.332 40.481 C 209.290 40.480,207.359 31.643,205.041 20.842 L 200.828 1.205 194.874 1.204 L 188.920 1.204 195.628 29.910 M270.128 29.947 L 270.128 58.691 275.922 58.691 L 281.716 58.691 281.716 46.125 L 281.716 33.559 293.078 33.559 L 304.439 33.559 304.439 46.125 L 304.439 58.691 310.233 58.691 L 316.027 58.691 316.027 29.947 L 316.027 1.204 310.233 1.204 L 304.439 1.204 304.439 12.491 L 304.439 23.777 293.078 23.777 L 281.716 23.777 281.716 12.491 L 281.716 1.204 275.922 1.204 L 270.128 1.204 270.128 29.947 M327.615 29.947 L 327.615 58.691 333.409 58.691 L 339.202 58.691 339.202 29.947 L 339.202 1.204 333.409 1.204 L 327.615 1.204 327.615 29.947 M348.834 6.094 L 348.834 10.984 362.215 11.023 L 375.596 11.061 360.484 29.769 L 345.372 48.476 345.372 53.584 L 345.372 58.691 368.698 58.691 L 392.024 58.691 392.024 53.800 L 392.024 48.909 375.984 48.909 C 367.163 48.909,359.967 48.855,359.995 48.789 C 360.023 48.722,367.003 40.058,375.508 29.534 L 390.971 10.400 390.971 5.802 L 390.971 1.204 369.902 1.204 L 348.834 1.204 348.834 6.094 M31.032 10.385 C 35.966 11.099,40.474 14.674,42.372 19.379 C 43.681 22.625,44.017 24.799,44.007 29.947 C 43.994 36.291,43.084 39.944,40.627 43.520 L 39.625 44.978 38.436 44.134 C 35.253 41.877,29.166 38.790,28.744 39.219 C 28.671 39.293,27.909 40.809,27.049 42.589 L 25.487 45.825 27.078 46.482 C 28.934 47.250,32.565 49.218,32.396 49.365 C 31.543 50.108,26.048 50.318,23.868 49.691 C 16.051 47.442,12.406 41.130,12.421 29.872 C 12.436 18.240,16.843 11.773,25.734 10.335 C 26.503 10.211,30.057 10.244,31.032 10.385 " stroke="none" fill="#ffffff" fill-rule="evenodd"></path></g></svg>