<svg id="svg" version="1.1" width="364" height="429" xmlns="http://www.w3.org/2000/svg" xmlns:xlink="http://www.w3.org/1999/xlink" ><g id="svgg"><path id="path0" d="M153.319 1.402 C 59.943 9.456,9.200 47.519,1.319 115.418 L 0.798 119.914 62.001 119.914 L 123.204 119.914 123.779 114.133 C 127.013 81.616,153.421 64.139,186.382 72.702 C 232.999 84.813,236.066 153.289,190.796 171.251 C 176.729 176.832,146.124 178.408,130.804 174.339 C 127.607 173.490,124.761 173.027,124.478 173.309 C 124.044 173.743,129.196 244.610,130.761 259.743 L 131.271 264.668 170.897 264.668 C 201.818 264.668,210.609 264.433,210.915 263.597 C 211.131 263.009,212.408 256.842,213.753 249.893 L 216.199 237.259 227.110 237.259 C 304.083 237.259,361.697 187.626,361.832 121.199 C 361.963 56.769,311.729 14.190,222.270 2.903 C 211.693 1.569,163.538 0.520,153.319 1.402 M95.075 373.876 L 95.075 429.122 170.450 429.122 L 245.824 429.122 245.824 373.876 L 245.824 318.630 170.450 318.630 L 95.075 318.630 95.075 373.876 " stroke="none" fill="#373644" fill-rule="evenodd"></path></g></svg>